<svg viewBox="0 0 16 20" xmlns="http://www.w3.org/2000/svg"><title>{{ cart }}</title><g stroke="none" stroke-width="1" fill="none" fill-rule="evenodd"><path d="M12.5873274,4.05833333 C12.482823,1.79046132 10.6159352,0.0042642251 8.3456607,0 L7.94982737,0 C5.67879165,0.00416043946 3.81065353,1.78979982 3.70399404,4.05833333 L0.645660702,4.05833333 L0.645660702,19.7416667 L15.6456607,19.7416667 L15.6456607,4.05833333 L12.5873274,4.05833333 Z M7.94982737,1.25 L8.3456607,1.25 C9.92485286,1.25349339 11.2301609,2.48223306 11.328994,4.05833333 L4.96232737,4.05833333 C5.06126424,2.48063251 6.36902797,1.25129812 7.94982737,1.25 Z M14.3956607,18.4916667 L1.9206607,18.4916667 L1.9206607,5.30833333 L3.67899404,5.30833333 L3.67899404,7.39166667 L4.92899404,7.39166667 L4.92899404,5.30833333 L11.3206607,5.30833333 L11.3206607,7.39166667 L12.5706607,7.39166667 L12.5706607,5.30833333 L14.3956607,5.30833333 L14.3956607,18.4916667 Z" fill="#000000" fill-rule="nonzero"></path></g></svg>