<svg xmlns="http://www.w3.org/2000/svg" xmlns:xlink="http://www.w3.org/1999/xlink" viewBox="0 0 24 27" version="1.1">
<path fill="#ffffff" d="M 5.371094 23.625 L 0.394531 23.625 L 0.394531 7.851562 L 5.371094 7.851562 Z M 2.882812 5.699219 C 1.289062 5.699219 0 4.402344 0 2.835938 C 0 1.269531 1.289062 0 2.882812 0 C 4.472656 0 5.761719 1.269531 5.761719 2.835938 C 5.761719 4.402344 4.472656 5.699219 2.882812 5.699219 Z M 23.996094 23.625 L 19.03125 23.625 L 19.03125 15.945312 C 19.03125 14.117188 18.992188 11.769531 16.441406 11.769531 C 13.855469 11.769531 13.460938 13.757812 13.460938 15.816406 L 13.460938 23.625 L 8.488281 23.625 L 8.488281 7.851562 L 13.261719 7.851562 L 13.261719 10.003906 L 13.332031 10.003906 C 13.996094 8.765625 15.617188 7.457031 18.039062 7.457031 C 23.074219 7.457031 24 10.722656 24 14.960938 L 24 23.625 Z M 23.996094 23.625 "/>
</svg>
