<svg viewBox="0 0 82 25" xmlns="http://www.w3.org/2000/svg"><title>Bemz</title><g stroke="none" stroke-width="1" fill="none" fill-rule="evenodd"><path d="M65.2859789,14.588362 L65.2859789,23.9297329 C65.2859789,24.2228576 65.0484815,24.4602109 64.7555009,24.4602109 L61.7988893,24.4602109 C61.5060527,24.4602109 61.2684112,24.2228576 61.2684112,23.9297329 L61.2656731,14.5360492 C61.2656731,12.6585518 59.7437012,11.13658 57.8662039,11.13658 C55.9887065,11.13658 54.4668787,12.6585518 54.4668787,14.5360492 L54.4668787,23.9295888 C54.4668787,24.2227135 54.2292373,24.4602109 53.9361125,24.4602109 L50.9999649,24.4602109 C50.7068401,24.4602109 50.4693427,24.2227135 50.4693427,23.9295888 L50.4686221,14.5360492 C50.4686221,12.6585518 48.9465062,11.13658 47.0691529,11.13658 C45.1916555,11.13658 43.6698278,12.6585518 43.6698278,14.5360492 L43.671413,23.9295888 C43.671413,24.2227135 43.4336274,24.4602109 43.1406467,24.4602109 L40.2016169,24.4602109 C39.9084921,24.4602109 39.6708506,24.2227135 39.6708506,23.9295888 L39.6708506,8.29136731 C39.6708506,7.99824253 39.9084921,7.76060105 40.2016169,7.76060105 L42.9466714,7.76060105 C43.2397961,7.76060105 43.4774376,7.99824253 43.4774376,8.29136731 L43.4774376,9.11857293 C44.701529,7.9459297 46.1655677,7.22652021 48.0107838,7.22652021 C50.6316134,7.22652021 52.1568998,8.28502636 53.0456415,9.66692091 C54.3553357,8.26196837 56.086703,7.34743058 58.4501476,7.34743058 C62.2356942,7.34743058 65.2859789,9.80988049 65.2859789,14.588362 L65.2859789,14.588362 Z M81.9475431,21.3607838 L81.9475431,23.9293005 C81.9475431,24.2224253 81.7101898,24.4599227 81.4172091,24.4599227 L68.694239,24.4599227 C68.4012583,24.4599227 68.1639051,24.2224253 68.1639051,23.9293005 L68.1639051,21.478812 C68.1639051,21.2887276 68.2323585,21.1049842 68.3571599,20.9614482 L75.9245062,11.3975677 L68.986355,11.3975677 C68.7250791,11.3975677 68.5133779,11.1858664 68.5133779,10.9245905 L68.5133779,8.24107206 C68.5133779,7.97994025 68.7250791,7.7680949 68.986355,7.7680949 L80.9102214,7.7680949 C81.1203374,7.7680949 81.2908225,7.93843585 81.2908225,8.14869596 L81.2908225,10.54471 C81.2908225,10.7526643 81.2163163,10.9535571 81.0808506,11.1113603 L73.5051459,20.8303058 L81.4172091,20.8303058 C81.7101898,20.8303058 81.9475431,21.0676591 81.9475431,21.3607838 L81.9475431,21.3607838 Z M24.7390685,14.3331388 C24.9040773,13.0051424 26.3339613,10.8059859 29.1904148,10.8059859 C31.7902039,10.8059859 33.11258,12.9166573 33.2131705,14.3331388 L24.7390685,14.3331388 Z M29.1904148,7.35333919 C24.0803304,7.35333919 20.6474271,10.8541195 20.6474271,16.1701406 C20.6474271,21.17142 24.165645,24.7305659 29.0124359,24.7305659 C32.9341687,24.7305659 35.2627381,22.8598418 36.3270088,21.6596731 C36.5332337,21.4270756 36.5018172,21.0711178 36.2549525,20.8821863 L34.067181,19.3848576 C33.8536063,19.22129 33.5514025,19.2395923 33.3667944,19.4351529 C32.7028682,20.1381336 31.4026854,21.1541265 29.0831951,21.1541265 C26.9501863,21.1541265 24.9452935,19.6442601 24.7275395,17.6797188 L36.0000176,17.6797188 C36.5930404,17.6797188 37.0736555,17.1989596 37.0736555,16.6059367 L37.0736555,15.7941511 C37.0736555,11.3988647 34.7586327,7.35333919 29.1904148,7.35333919 L29.1904148,7.35333919 Z M10.3552021,20.412812 L4.2351775,20.4129561 L4.0792478,20.4129561 L4.0792478,20.2568822 L4.0792478,12.1999859 L4.0792478,12.0439121 L4.2351775,12.0439121 L10.3831599,12.0439121 C12.6633076,12.0832548 14.5161617,13.9441793 14.5161617,16.192478 C14.5161617,18.4425062 12.6494728,20.3357118 10.3552021,20.412812 L10.3552021,20.412812 Z M4.07607733,8.22017575 L4.07607733,4.31645694 L4.07607733,4.16038313 L4.23200703,4.16038313 L8.66490685,4.16038313 C9.85714938,4.24339192 10.7824956,5.17695255 10.7824956,6.28647452 C10.7824956,7.43865378 9.83265026,8.37610545 8.66490685,8.37610545 L4.23200703,8.37610545 L4.07607733,8.37610545 L4.07607733,8.22017575 Z M16.1469385,10.5213638 C15.6720879,10.0218699 15.0852619,9.57713884 14.3481265,9.15676274 L13.8649174,8.88972232 L14.0939121,8.59832689 C14.6053673,7.78697364 14.8584288,6.97403515 14.8584288,6.12650967 C14.8584288,4.5111529 14.1868647,2.94234446 13.0160949,1.82230228 C11.8741476,0.662917399 10.2805518,0 8.64069596,0 L0.593887522,0 C0.266463972,0 0,0.261564148 0,0.583079086 L0,23.8771318 C0,24.1986467 0.266463972,24.4602109 0.593887522,24.4602109 L10.3491494,24.4602109 C11.4601125,24.4602109 12.514007,24.2434657 13.4817223,23.8157399 C14.4625518,23.4158278 15.3573462,22.820355 16.145065,22.0441652 C17.7249701,20.4865975 18.5952654,18.4338594 18.5952654,16.2641019 C18.5952654,14.0829596 17.7256907,12.0433357 16.1469385,10.5213638 L16.1469385,10.5213638 Z" fill="#000000"></path></g></svg>