<svg width="32px" height="40px" viewBox="0 0 32 40" xmlns="http://www.w3.org/2000/svg"><g fill="#000" fill-rule="evenodd"><path fill-rule="nonzero" d="M31.333 0H.667A.667.667 0 0 0 0 .667v38.666c0 .369.298.667.667.667h30.666a.667.667 0 0 0 .667-.667V.667A.667.667 0 0 0 31.333 0zm-.666 38.667H1.333V9.333h29.334v29.334zm0-30.667H1.333V1.333h29.334V8z"></path><path d="M15.333 5.333h-12a.667.667 0 1 1 0-1.333h12a.667.667 0 1 1 0 1.333z"></path><path fill-rule="nonzero" d="M16 11.667C9.188 11.667 3.667 17.188 3.667 24S9.188 36.333 16 36.333 28.333 30.812 28.333 24C28.326 17.192 22.808 11.674 16 11.667zM16 13a11.013 11.013 0 0 1 10.907 9.587c-.48.258-.943.545-1.387.86a7.52 7.52 0 0 1-9.153 0 8.453 8.453 0 0 0-5.334-1.78 8.467 8.467 0 0 0-5.333 1.78c-.253.166-.493.333-.74.48C5.008 17.867 9.94 12.985 16 13zm0 22a11.013 11.013 0 0 1-10.907-9.587c.507-.273.96-.573 1.394-.86A7.12 7.12 0 0 1 11.053 23a7.153 7.153 0 0 1 4.574 1.553 8.453 8.453 0 0 0 5.333 1.78 8.353 8.353 0 0 0 5.333-1.786c.247-.167.487-.327.734-.474C26.979 30.127 22.054 35.008 16 35z"></path></g></svg>