<svg width="22px" height="40px" viewBox="0 0 22 40" xmlns="http://www.w3.org/2000/svg"><path fill="#000" fill-rule="nonzero" d="M20.667 3.333h-4V.667A.667.667 0 0 0 16 0H5.333a.667.667 0 0 0-.666.667v2.666h-4A.667.667 0 0 0 0 4v32c0 .368.298.667.667.667h4v2.666c0 .369.298.667.666.667H16a.667.667 0 0 0 .667-.667v-2.666h4a.667.667 0 0 0 .666-.667V4a.667.667 0 0 0-.666-.667zM6 1.333h9.333v2H6v-2zm9.333 37.334H6v-2h9.333v2zM20 35.333H1.333v-5.14a6.24 6.24 0 0 1 4.24-1.526c2.314 0 3.46.9 4.667 1.853 1.207.953 2.733 2.147 5.513 2.147A7.367 7.367 0 0 0 20 31.453v3.88zm0-5.526a6.247 6.247 0 0 1-4.247 1.526c-2.32 0-3.466-.9-4.666-1.86-1.2-.96-2.74-2.14-5.514-2.14a7.333 7.333 0 0 0-4.24 1.214v-5.02A6.24 6.24 0 0 1 5.573 22c2.314 0 3.46.9 4.667 1.853 1.207.954 2.733 2.147 5.513 2.147A7.367 7.367 0 0 0 20 24.787v5.02zm0-6.667a6.247 6.247 0 0 1-4.247 1.527c-2.32 0-3.466-.9-4.666-1.86-1.2-.96-2.74-2.14-5.514-2.14a7.333 7.333 0 0 0-4.24 1.213v-5.02a6.24 6.24 0 0 1 4.24-1.527c2.314 0 3.46.9 4.667 1.854 1.207.953 2.733 2.146 5.513 2.146A7.367 7.367 0 0 0 20 18.12v5.02zm0-6.667A6.247 6.247 0 0 1 15.753 18c-2.32 0-3.466-.9-4.666-1.86-1.2-.96-2.74-2.14-5.514-2.14a7.333 7.333 0 0 0-4.24 1.213v-5.02a6.24 6.24 0 0 1 4.24-1.526c2.314 0 3.46.9 4.667 1.853 1.207.953 2.733 2.147 5.513 2.147A7.367 7.367 0 0 0 20 11.453v5.02zm0-6.666a6.247 6.247 0 0 1-4.247 1.526c-2.32 0-3.466-.9-4.666-1.86-1.2-.96-2.74-2.14-5.514-2.14a7.333 7.333 0 0 0-4.24 1.214v-3.88H20v5.14z"></path></svg>