<svg xmlns="http://www.w3.org/2000/svg" xmlns:xlink="http://www.w3.org/1999/xlink" viewBox="0 0 24 27" version="1.1">
<path fill="#ffffff"  d="M 22.75 15.808594 C 22.90625 15.070312 23.003906 14.285156 23.003906 13.5 C 23.003906 7.515625 18.082031 2.671875 12.003906 2.671875 C 11.207031 2.671875 10.414062 2.761719 9.660156 2.921875 C 8.640625 2.144531 7.375 1.6875 6 1.6875 C 2.6875 1.6875 0 4.335938 0 7.59375 C 0 8.949219 0.464844 10.195312 1.25 11.191406 C 1.09375 11.929688 0.996094 12.714844 0.996094 13.5 C 0.996094 19.484375 5.917969 24.328125 11.996094 24.328125 C 12.792969 24.328125 13.585938 24.238281 14.339844 24.078125 C 15.359375 24.847656 16.625 25.308594 17.996094 25.308594 C 21.304688 25.308594 23.996094 22.660156 23.996094 19.402344 C 24 18.050781 23.535156 16.804688 22.75 15.808594 Z M 12.328125 20.636719 C 8.8125 20.636719 5.871094 19.09375 5.871094 17.207031 C 5.871094 16.363281 6.355469 15.59375 7.453125 15.59375 C 9.125 15.59375 9.277344 17.960938 12.171875 17.960938 C 13.546875 17.960938 14.4375 17.359375 14.4375 16.574219 C 14.4375 15.589844 13.582031 15.433594 12.1875 15.097656 C 8.839844 14.285156 5.875 13.9375 5.875 10.5 C 5.875 7.378906 9.015625 6.222656 11.722656 6.222656 C 14.671875 6.222656 17.65625 7.378906 17.65625 9.144531 C 17.65625 10.035156 17.046875 10.820312 16.035156 10.820312 C 14.519531 10.820312 14.46875 9.054688 12.015625 9.054688 C 10.640625 9.054688 9.765625 9.421875 9.765625 10.242188 C 9.765625 11.285156 10.878906 11.390625 13.46875 11.980469 C 15.6875 12.472656 18.328125 13.394531 18.328125 16.074219 C 18.328125 19.191406 15.269531 20.636719 12.328125 20.636719 Z M 12.328125 20.636719 "/>
</svg>
